<?xml version="1.0" encoding="UTF-8" standalone="no"?>
<svg
   xmlns:dc="http://purl.org/dc/elements/1.1/"
   xmlns:cc="http://creativecommons.org/ns#"
   xmlns:rdf="http://www.w3.org/1999/02/22-rdf-syntax-ns#"
   xmlns:svg="http://www.w3.org/2000/svg"
   xmlns="http://www.w3.org/2000/svg"
   id="svg3039"
   version="1.1"
   width="117.73228"
   height="117.72963"
   xml:space="preserve"><metadata
     id="metadata3045"><rdf:RDF><cc:Work
         rdf:about=""><dc:format>image/svg+xml</dc:format><dc:type
           rdf:resource="http://purl.org/dc/dcmitype/StillImage" /><dc:title></dc:title></cc:Work></rdf:RDF></metadata><defs
     id="defs3043" /><g
     id="g3047"
     transform="matrix(1.25,0,0,-1.25,34.309764,290.21227)"><path
       id="path3143"
       style="fill:#0f80cc;fill-opacity:1;fill-rule:nonzero;stroke:none;stroke-width:1.06667"
       d="m -27.446252,185.07925 c 0,26.00714 21.0835881,47.09056 47.091925,47.09056 26.006694,0 47.090564,-21.08342 47.090564,-47.09056 0,-26.00887 -21.08387,-47.09192 -47.090564,-47.09192 -26.0083369,0 -47.091925,21.08305 -47.091925,47.09192" /><path
       id="path3145"
       style="fill:#268cb2;stroke:#3f8fca;stroke-width:0.00665622;stroke-linecap:butt;stroke-linejoin:miter;stroke-miterlimit:3.864;stroke-dasharray:none;stroke-opacity:1;fill-opacity:1"
       d="m -27.447811,185.07925 c 0,26.00714 21.0839489,47.09056 47.093484,47.09056 26.006694,0 47.092339,-21.08342 47.092339,-47.09056 0,-26.01025 -21.085645,-47.09314 -47.092339,-47.09314 -26.0095351,0 -47.093484,21.08289 -47.093484,47.09314 z" /><path
       id="path3147"
       style="fill:#ffffff;fill-opacity:1;fill-rule:nonzero;stroke:none;stroke-width:1.06667"
       d="m 19.002639,160.41232 v 3.64692 h 1.753364 c 1.25811,0 1.633102,-0.81957 1.662392,-1.76175 0.0284,-0.97059 -0.451322,-1.88517 -1.61402,-1.88517 z m -3.990803,-8.50371 h 3.945538 v 5.088 l 1.306037,-0.031 c 2.521987,0 3.500073,0.23645 4.365883,0.84664 1.3087,0.90886 2.032501,2.44841 2.032501,4.29217 0,3.43493 -1.960609,5.34628 -5.138056,5.34628 h -6.511903 v -15.54207" /><path
       id="path3149"
       style="fill:#ffffff;fill-opacity:1;fill-rule:nonzero;stroke:none;stroke-width:1.06667"
       d="m 40.869776,152.46556 c -1.483991,-0.72252 -2.329388,-0.93052 -3.762346,-0.93052 -4.693391,0 -8.005746,3.33854 -8.005746,8.07276 0,4.69379 3.385135,8.17207 7.960038,8.17207 1.40633,0 2.316518,-0.2281 3.808054,-0.95722 v -4.07113 c -1.543014,1.29041 -2.151434,1.19993 -3.362946,1.19993 -2.360452,0 -3.994442,-1.79557 -3.994442,-4.34365 0,-2.56646 1.658397,-4.34019 4.015299,-4.34019 1.276304,0 1.915344,0.16987 3.342089,1.23202 v -4.03407" /><path
       id="path3151"
       style="fill:#ffffff;fill-opacity:1;fill-rule:nonzero;stroke:none;stroke-width:1.06667"
       d="m 4.591718,155.31199 c 0.6214661,0.007 1.0293419,0.13712 1.5081335,0.53599 0.69429,0.57398 0.7834006,1.27586 0.8000422,2.17158 v 9.43112 h 4.5185423 v -9.44811 c 0,-1.65534 -0.05254,-3.68961 -2.2259876,-5.22238 -1.4154285,-1.00077 -3.0925969,-1.20756 -4.6041919,-1.20756 -1.513015,0 -3.1901834,0.20679 -4.60556749,1.20756 -2.17313411,1.53277 -2.23415351,3.56704 -2.23415351,5.22238 v 9.44811 h 4.5263531 v -9.43112 c 0.016819,-0.89572 0.1008704,-1.5976 0.7968913,-2.17158 0.4815431,-0.40233 0.8925699,-0.528 1.5199381,-0.53599" /><path
       id="path3153"
       style="fill:#ffffff;fill-opacity:1;fill-rule:nonzero;stroke:none;stroke-width:1.06667"
       d="m -3.2250237,212.15234 c 0,3.71087 3.00677025,6.72368 6.7220313,6.72368 3.7131753,0 6.7253154,-3.01281 6.7253154,-6.72368 0,-3.70997 -3.0121401,-6.72056 -6.7253154,-6.72056 -3.71526105,0 -6.7220313,3.01059 -6.7220313,6.72056" /><path
       id="path3155"
       style="fill:#ffffff;fill-opacity:1;fill-rule:nonzero;stroke:none;stroke-width:1.06667"
       d="m -3.2250237,196.22251 c 0,3.71486 3.00677025,6.72233 6.7220313,6.72233 3.7131753,0 6.7253154,-3.00747 6.7253154,-6.72233 0,-3.71042 -3.0121401,-6.72279 -6.7253154,-6.72279 -3.71526105,0 -6.7220313,3.01237 -6.7220313,6.72279" /><path
       id="path3157"
       style="fill:#ffffff;fill-opacity:1;fill-rule:nonzero;stroke:none;stroke-width:1.06667"
       d="m -3.2250237,179.86881 c 0,3.71625 3.00677025,6.72461 6.7220313,6.72461 3.7131753,0 6.7253154,-3.00836 6.7253154,-6.72461 0,-3.70726 -3.0121401,-6.72043 -6.7253154,-6.72043 -3.71526105,0 -6.7220313,3.01317 -6.7220313,6.72043" /><path
       id="path3159"
       style="fill:#ffffff;fill-opacity:1;fill-rule:nonzero;stroke:none;stroke-width:1.06667"
       d="m 13.11309,212.15234 c 0,3.71087 3.010764,6.72368 6.720744,6.72368 3.715305,0 6.721898,-3.01281 6.721898,-6.72368 0,-3.70997 -3.006593,-6.72056 -6.721898,-6.72056 -3.70998,0 -6.720744,3.01059 -6.720744,6.72056" /><path
       id="path3161"
       style="fill:#ffffff;fill-opacity:1;fill-rule:nonzero;stroke:none;stroke-width:1.06667"
       d="m 13.11309,196.22251 c 0,3.71486 3.010764,6.72233 6.720744,6.72233 3.715305,0 6.721898,-3.00747 6.721898,-6.72233 0,-3.71042 -3.006593,-6.72279 -6.721898,-6.72279 -3.70998,0 -6.720744,3.01237 -6.720744,6.72279" /><path
       id="path3163"
       style="fill:#ffffff;fill-opacity:1;fill-rule:nonzero;stroke:none;stroke-width:1.06667"
       d="m 13.11309,179.86881 c 0,3.71625 3.010764,6.72461 6.720744,6.72461 3.715305,0 6.721898,-3.00836 6.721898,-6.72461 0,-3.70726 -3.006593,-6.72043 -6.721898,-6.72043 -3.70998,0 -6.720744,3.01317 -6.720744,6.72043" /><path
       id="path3165"
       style="fill:#ffffff;fill-opacity:1;fill-rule:nonzero;stroke:none;stroke-width:1.06667"
       d="m 29.071951,212.15234 c 0,3.71087 3.005704,6.72368 6.722341,6.72368 3.710869,0 6.723674,-3.01281 6.723674,-6.72368 0,-3.70997 -3.012805,-6.72056 -6.723674,-6.72056 -3.716637,0 -6.722341,3.01059 -6.722341,6.72056" /><path
       id="path3167"
       style="fill:#ffffff;fill-opacity:1;fill-rule:nonzero;stroke:none;stroke-width:1.06667"
       d="m 29.071951,196.22251 c 0,3.71486 3.005704,6.72233 6.722341,6.72233 3.710869,0 6.723674,-3.00747 6.723674,-6.72233 0,-3.71042 -3.012805,-6.72279 -6.723674,-6.72279 -3.716637,0 -6.722341,3.01237 -6.722341,6.72279" /><path
       id="path3169"
       style="fill:#ffffff;fill-opacity:1;fill-rule:nonzero;stroke:none;stroke-width:1.06667"
       d="m 29.071951,179.86881 c 0,3.71625 3.005704,6.72461 6.722341,6.72461 3.710869,0 6.723674,-3.00836 6.723674,-6.72461 0,-3.70726 -3.012805,-6.72043 -6.723674,-6.72043 -3.716637,0 -6.722341,3.01317 -6.722341,6.72043" /></g></svg>
